<svg width="390" height="266" viewBox="0 0 390 266" fill="none" xmlns="http://www.w3.org/2000/svg">
<g clip-path="url(#clip0_1_3)">
<rect width="390" height="266" fill="white"/>
<path d="M223.475 64.822C222.015 63.8921 221.675 62.1085 222.715 60.8417C223.755 59.575 225.784 59.3015 227.244 60.2315C228.703 61.1615 229.044 62.945 228.004 64.2118C226.964 65.4785 224.935 65.752 223.475 64.822Z" fill="#FF6969"/>
<path d="M39.0216 134.734C38.1418 133.672 38.393 132.189 39.5822 131.424C40.7714 130.659 42.4513 130.901 43.3312 131.962C44.211 133.024 43.9598 134.507 42.7705 135.272C41.5813 136.037 39.9014 135.795 39.0216 134.734Z" fill="#1A5AFF"/>
<path d="M95.0945 222.658C93.7784 221.46 93.7988 219.559 95.14 218.416C96.4812 217.273 98.6387 217.318 99.9548 218.516C101.271 219.714 101.25 221.615 99.9092 222.758C98.568 223.901 96.4105 223.856 95.0945 222.658Z" fill="#1A5AFF"/>
<path d="M344.999 161.526C343.464 160.946 342.743 159.395 343.389 158.064C344.036 156.732 345.808 156.122 347.343 156.701C348.878 157.281 349.599 158.833 348.952 160.164C348.305 161.495 346.534 162.106 344.999 161.526Z" fill="#1A5AFF"/>
<path d="M367.106 89.8255C366.253 90.5904 364.866 90.6102 364.01 89.8697C363.154 89.1293 363.151 87.9071 364.003 87.1423C364.856 86.3775 366.243 86.3577 367.1 87.0981C367.956 87.8385 367.959 89.0607 367.106 89.8255Z" fill="#1A5AFF"/>
<path d="M341.869 108.298C340.652 108.331 339.634 107.5 339.597 106.444C339.561 105.387 340.518 104.503 341.735 104.47C342.952 104.437 343.969 105.268 344.006 106.324C344.043 107.38 343.085 108.265 341.869 108.298Z" fill="#1A5AFF"/>
<path d="M289.205 90.6853C288.588 90.9718 287.827 90.7698 287.507 90.2346C287.186 89.6993 287.427 89.032 288.045 88.7455C288.662 88.459 289.423 88.661 289.743 89.1963C290.063 89.7316 289.822 90.3988 289.205 90.6853Z" fill="#1A5AFF"/>
<path d="M169.885 61.5144C169.712 60.9199 170.113 60.315 170.779 60.1644C171.446 60.0138 172.127 60.3742 172.299 60.9687C172.472 61.5632 172.071 62.1681 171.405 62.3187C170.739 62.4692 170.058 62.1088 169.885 61.5144Z" fill="#1A5AFF"/>
<path d="M196.34 204.908C195.702 205.158 194.958 204.911 194.679 204.359C194.401 203.806 194.692 203.154 195.329 202.904C195.966 202.654 196.71 202.9 196.989 203.453C197.268 204.006 196.977 204.658 196.34 204.908Z" fill="#1A5AFF"/>
<path d="M313.438 165.611C312.568 165.284 312.159 164.406 312.524 163.652C312.889 162.897 313.891 162.55 314.761 162.877C315.631 163.205 316.041 164.083 315.676 164.837C315.311 165.592 314.308 165.939 313.438 165.611Z" fill="#FF6969"/>
<path d="M313.438 165.611C312.568 165.284 312.159 164.406 312.524 163.652C312.889 162.897 313.891 162.55 314.761 162.877C315.631 163.205 316.041 164.083 315.676 164.837C315.311 165.592 314.308 165.939 313.438 165.611Z" fill="#FF6969"/>
<path d="M288.622 223.163C287.731 223.573 286.635 223.279 286.176 222.506C285.717 221.733 286.069 220.772 286.96 220.362C287.851 219.951 288.947 220.246 289.406 221.019C289.864 221.792 289.513 222.753 288.622 223.163Z" fill="#1A5AFF"/>
<path d="M94.5323 119.009C94.2793 117.358 95.5761 115.837 97.4262 115.616C99.2763 115.395 100.984 116.556 101.237 118.207C101.49 119.859 100.193 121.379 98.343 121.6C96.4929 121.822 94.7854 120.661 94.5323 119.009Z" fill="#1A5AFF"/>
<path d="M277.864 190.887C276.278 189.975 275.818 188.118 276.838 186.742C277.857 185.366 279.972 184.989 281.557 185.901C283.143 186.812 283.603 188.67 282.584 190.046C281.564 191.422 279.449 191.799 277.864 190.887Z" fill="#C1E6EB"/>
<path d="M314.12 215.389L318.579 215.045C318.579 215.045 311.293 209.255 313.619 203.87C316.939 196.183 312.515 190.769 312.515 190.769L307.805 191.111C307.805 191.111 310.206 195.611 308.103 203.388C305.911 211.492 314.12 215.389 314.12 215.389Z" fill="#1A5AFF"/>
<path d="M328.274 67.1702L332.274 69.4447C332.274 69.4447 330.44 60.3895 336.38 57.2015C344.859 52.6511 345.151 45.5572 345.151 45.5572L340.941 43.1368C340.941 43.1368 339.627 48.2994 332.103 53.6249C324.263 59.1746 328.274 67.1702 328.274 67.1702Z" fill="#FF6969"/>
<path d="M262.962 162.806L265.408 165.373C265.408 165.373 266.436 158.073 271.831 156.867C279.531 155.146 281.657 149.785 281.657 149.785L279.089 147.063C279.089 147.063 276.7 150.736 269.522 153.248C262.041 155.865 262.962 162.806 262.962 162.806Z" fill="#1A5AFF"/>
<path d="M92.4367 172.86L96.2109 172.399C96.2109 172.399 89.7347 167.753 91.4506 163.088C93.8998 156.429 89.8752 151.995 89.8752 151.995L85.8875 152.464C85.8875 152.464 88.148 156.198 86.7374 162.887C85.2675 169.858 92.4367 172.86 92.4367 172.86Z" fill="#1A5AFF"/>
<path d="M220.461 32.7839L221.432 36.021C221.432 36.021 225.894 29.8038 231.358 30.7326C239.156 32.0585 243.674 28.0062 243.674 28.0062L242.669 24.5836C242.669 24.5836 238.73 27.0112 231.021 26.5954C222.988 26.1621 220.461 32.7839 220.461 32.7839Z" fill="#1A5AFF"/>
<path d="M93.2966 47.1644L95.472 43.35C95.472 43.35 86.3224 44.6726 82.8727 38.6586C77.9488 30.0746 70.7209 29.4099 70.7209 29.4099L68.4042 33.4227C68.4042 33.4227 73.7025 34.9902 79.3819 42.6758C85.3005 50.6849 93.2966 47.1644 93.2966 47.1644Z" fill="#FF6969"/>
<path d="M163.096 225.68L158.723 227.344C158.723 227.344 168.285 231.037 167.985 237.16C167.556 245.899 174.085 250.058 174.085 250.058L178.712 248.321C178.712 248.321 174.574 244.488 173.74 236.017C172.871 227.189 163.096 225.68 163.096 225.68Z" fill="#1A5AFF"/>
<path d="M153.562 85.7369C153.562 85.7369 150.649 85.5059 150.02 82.8182C149.468 80.462 148.268 80.4618 148.268 80.4618C148.268 80.4618 146.181 83.5762 143.64 85.2087C141.714 86.4472 138.99 86.2888 138.99 86.2888C138.99 86.2888 140.559 86.5247 142.087 89.6639C142.558 90.6308 142.712 92.4372 142.712 92.4372C142.712 92.4372 146.208 91.4347 148.609 90.0791C151.01 88.7235 153.562 85.7369 153.562 85.7369Z" fill="#1A5AFF"/>
<path d="M191.45 14.6917C191.45 14.6917 189.353 16.4854 186.626 15.1529C184.236 13.9848 183.454 14.786 183.454 14.786C183.454 14.786 184.778 18.2096 184.53 20.9694C184.342 23.063 182.431 24.7775 182.431 24.7775C182.431 24.7775 183.657 23.884 187.358 24.9106C188.498 25.2268 190.156 26.3017 190.156 26.3017C190.156 26.3017 191.57 23.3144 191.966 20.8281C192.362 18.3417 191.45 14.6917 191.45 14.6917Z" fill="#C1E6EB"/>
<path d="M106.262 76.7543C106.262 76.7543 107.91 74.3384 110.575 75.0937C112.912 75.7558 113.508 74.7141 113.508 74.7141C113.508 74.7141 111.818 71.3953 111.65 68.4009C111.523 66.1293 113.014 63.8427 113.014 63.8427C113.014 63.8427 112.028 65.09 108.521 64.8966C107.441 64.8371 105.784 64.0963 105.784 64.0963C105.784 64.0963 104.925 67.6155 104.92 70.3551C104.914 73.0947 106.262 76.7543 106.262 76.7543Z" fill="#C1E6EB"/>
<path d="M299.963 132.258C299.963 132.258 302.886 132.338 303.693 134.988C304.4 137.311 305.599 137.249 305.599 137.249C305.599 137.249 307.476 134.032 309.903 132.271C311.745 130.935 314.475 130.952 314.475 130.952C314.475 130.952 312.892 130.798 311.158 127.744C310.624 126.803 310.35 125.008 310.35 125.008C310.35 125.008 306.926 126.19 304.618 127.667C302.311 129.145 299.963 132.258 299.963 132.258Z" fill="#C1E6EB"/>
<path d="M130.958 196.645C130.958 196.645 133.798 197.262 133.962 200.003C134.105 202.405 135.292 202.566 135.292 202.566C135.292 202.566 137.886 199.765 140.676 198.489C142.792 197.522 145.457 198.041 145.457 198.041C145.457 198.041 143.946 197.599 142.97 194.292C142.67 193.274 142.826 191.467 142.826 191.467C142.826 191.467 139.198 191.992 136.594 193.013C133.989 194.033 130.958 196.645 130.958 196.645Z" fill="#FF6969"/>
<path d="M291.795 38.8289C291.795 38.8289 291.196 36.3093 293.933 34.9904C296.332 33.8343 295.982 32.8236 295.982 32.8236C295.982 32.8236 291.99 31.9817 289.475 30.3231C287.568 29.065 286.945 26.7261 286.945 26.7261C286.945 26.7261 287.147 28.1161 284.182 30.3246C283.269 31.0048 281.351 31.665 281.351 31.665C281.351 31.665 283.46 34.3134 285.633 35.9361C287.806 37.5587 291.795 38.8289 291.795 38.8289Z" fill="#C1E6EB"/>
<path d="M44.9813 192.737C44.9813 192.737 46.5595 190.571 49.5592 191.324C52.1887 191.984 52.7435 191.047 52.7435 191.047C52.7435 191.047 50.5683 187.977 50.0961 185.24C49.7378 183.164 51.1554 181.112 51.1554 181.112C51.1554 181.112 50.1929 182.227 46.3228 181.967C45.1308 181.887 43.2388 181.172 43.2388 181.172C43.2388 181.172 42.6345 184.364 42.8919 186.864C43.1493 189.365 44.9813 192.737 44.9813 192.737Z" fill="#FF6969"/>
<path d="M140.81 48.6515C140.81 48.6515 143.734 48.731 144.541 51.3809C145.248 53.704 146.447 53.642 146.447 53.642C146.447 53.642 148.323 50.4252 150.751 48.6642C152.593 47.3282 155.322 47.345 155.322 47.345C155.322 47.345 153.74 47.1909 152.005 44.137C151.471 43.1963 151.197 41.4013 151.197 41.4013C151.197 41.4013 147.773 42.5833 145.466 44.0608C143.159 45.5383 140.81 48.6515 140.81 48.6515Z" fill="#C1E6EB"/>
<path d="M38.2401 82.9712C38.2401 82.9712 41.0504 82.2544 42.7439 84.5566C44.2285 86.5748 45.3477 86.191 45.3477 86.191C45.3477 86.191 46.0101 82.6224 47.7053 80.2892C48.9912 78.5192 51.595 77.7955 51.595 77.7955C51.595 77.7955 50.0353 78.0777 47.3175 75.6427C46.4804 74.8927 45.5926 73.2594 45.5926 73.2594C45.5926 73.2594 42.7467 75.3118 41.0673 77.3425C39.3878 79.3732 38.2401 82.9712 38.2401 82.9712Z" fill="#C1E6EB"/>
<circle cx="194.533" cy="148.25" r="76.2026" fill="#E6FBFE"/>
<path d="M154.737 127.886L189.806 169.19L266.96 78.7884" stroke="#1A5AFF" stroke-width="18" stroke-linecap="round" stroke-linejoin="round"/>
</g>
<defs>
<clipPath id="clip0_1_3">
<rect width="390" height="266" fill="white"/>
</clipPath>
</defs>
</svg>
